<svg xmlns="http://www.w3.org/2000/svg" xmlns:xlink="http://www.w3.org/1999/xlink" style="vertical-align:-6.005ex;margin-bottom:-.249ex" width="17.816ex" height="13.634ex" viewBox="0 -3177.3 7670.7 5870.3"><defs><path id="m" stroke-width="1" d="M60 749l4 1h22l28-24q94-85 137-212t43-264q0-68-10-131T261 12t-37-88-38-67-41-51-32-33-23-19l-4-4H63q-3 0-5 3t-3 9q1 1 11 13Q221-64 221 250T66 725q-10 12-11 13 0 8 5 11z"/><path id="e" stroke-width="1" d="M52 289q7 42 54 97t116 56q35 0 64-18t43-45q42 63 101 63 37 0 64-22t28-59q0-29-14-47t-27-22-23-4q-19 0-31 11t-12 29q0 46 50 63-11 13-40 13-13 0-19-2-38-16-56-66-60-221-60-258 0-28 16-40t35-12q37 0 73 33t49 81q3 10 6 11t16 2h4q15 0 15-8 0-1-2-11-16-57-62-101T333-11q-70 0-106 63-41-62-94-62h-6q-49 0-70 26T35 71q0 32 19 52t45 20q43 0 43-42 0-20-12-35t-23-20-13-5l-3-1q0-1 6-4t16-7 19-3q36 0 62 45 9 16 23 68t28 108 16 66q5 27 5 39 0 28-15 40t-34 12q-40 0-75-32t-49-82q-2-9-5-10t-16-2H58q-6 6-6 11z"/><path id="g" stroke-width="1" d="M31 249q-20 0-20 9 0 17 15 46t40 61 63 53 77 23q27 0 33-1 48-11 79-54t53-131q14-60 14-85 0-4 1-4l12 27q20 51 45 107t43 91 22 39q2 1 16 1h13q6-6 6-9 0-4-21-44t-59-127-72-180q-6-16-13-65t-21-106q-16-65-27-90t-27-26q-17 0-17 28 0 50 54 220l6 19 1 18q1 10 1 31 0 157-57 217-40 38-95 38-48 0-88-26t-57-69q-2-9-4-9-2-2-16-2z"/><path id="h" stroke-width="1" d="M94 250q0 69 10 131t23 107 37 88 38 67 42 52 33 34 25 21h17q14 0 14-9 0-3-17-21t-41-53-49-86-42-138-17-193 17-192 41-139 49-86 42-53 17-21q0-9-15-9h-16l-28 24q-94 85-137 212T94 250z"/><path id="i" stroke-width="1" d="M79 43q-6 0-27 6T30 61q0 7 55 232t61 235q15 32 52 32 20 0 42-15t22-44q0-5-2-15-1-7-87-223T84 45t-5-2z"/><path id="j" stroke-width="1" d="M56 237v13l14 20h299v150l1 150q10 13 19 13 13 0 20-15V270h298q15-8 15-20t-15-20H409V-68q-8-14-18-14h-4q-12 0-18 14v298H70q-14 7-14 20z"/><path id="k" stroke-width="1" d="M173 380q0 25-19 25-24 0-50-29t-43-89q-1-1-2-3t-1-3-2-2-3-1-4 0-8 0H27q-6 6-6 9 0 7 8 29t24 52 44 51 63 22q42 0 65-24t24-56q0-17-3-26 0-6-15-44t-31-89-18-89q0-27 5-44 13-43 63-43 37 0 69 34t50 79 29 83 11 55q0 23-8 40t-18 26-18 18-8 22q0 22 19 41t41 19q19 0 34-18t16-58q0-27-12-83t-37-125-71-119-106-51q-64 0-102 33-37 32-37 95 0 31 8 64t41 117q22 64 22 82z"/><path id="l" stroke-width="1" d="M26 385q-7 7-7 10 0 4 3 16t5 14q2 5 9 5t51 1h53l19 80q3 11 7 29t7 26 6 20 8 17 10 12 14 9 18 2q18-1 25-11t7-19q0-7-9-47t-20-79l-10-37q0-2 50-2h51q7-7 7-11 0-22-13-35H210l-36-145Q135 80 135 68q0-42 27-42 35 0 68 34t53 84q2 6 5 7t15 2h4q15 0 15-8 0-3-3-12-5-16-18-38t-34-47-51-42-61-17q-30 0-57 15T59 56q-2 8-2 27v18l35 140q35 141 36 142 0 2-51 2H26z"/><path id="f" stroke-width="1" d="M56 347q0 13 14 20h637q15-8 15-20 0-11-14-19l-318-1H72q-16 5-16 20zm0-194q0 15 16 20h636q14-10 14-20 0-13-15-20H70q-14 7-14 20z"/><path id="n" stroke-width="1" d="M21 287q0 14 15 48t48 71 74 36q41 0 66-23t26-64q-2-19-3-21 0-3-16-46t-33-97-16-86q0-43 14-60t42-18q23 0 43 11t31 23 27 33q0 1 5 20t14 59 19 74q38 150 42 157 13 27 43 27 13 0 21-7t11-12 2-9q0-13-49-210T391-23q-28-83-97-132t-138-50q-45 0-79 22t-34 66q0 22 7 37t19 22 20 10 17 3q44 0 44-42 0-20-12-35t-23-20-13-5l-3-1q2-5 19-12t34-7h8q17 0 26 2 33 9 61 38t43 62 23 56 8 30l-6-4q-6-4-19-11T270-6q-20-5-39-5-46 0-81 22t-46 71q-1 7-1 31 0 57 35 149t35 117v14q0 3-4 7t-11 4h-4q-23 0-42-19t-30-41-17-42-8-22q-2-2-16-2H27q-6 6-6 9z"/><path id="o" stroke-width="1" d="M347 338q-10 0-53 11t-63 11q-20 0-34-4t-23-10-12-11-7-11l-2-4q-3-3-15-3-21 0-21 8 0 5 3 14 13 39 43 67t66 34q12 2 17 2 25 0 45-17t38-33 38-17q22 0 44 33t23 33q1 1 15 1h13q6-6 6-8 0-4-5-14t-14-21-17-22-14-19l-7-9q-43-51-136-135T160 106l-12-12 15-1q22 0 64-11t63-11q38 0 70 19t42 50q4 9 7 11t15 2q19 0 19-10 0-5-1-9-17-62-66-103t-98-42q-26 0-46 17t-39 34-38 17q-44 0-79-60-6-8-17-8H41q-6 6-6 9 0 15 58 86 39 45 132 130t115 108q12 16 7 16z"/><path id="p" stroke-width="1" d="M34 159q0 109 86 196t186 87q56 0 88-24t33-63q0-29-19-49t-48-21q-19 0-30 10t-11 30 11 34 22 21 14 6h1q0 2-6 6t-21 8-34 4q-30 0-57-14-21-9-43-31-44-44-64-124t-21-116q0-46 26-69 22-24 58-24h4q112 0 185 85 9 10 12 10 4 0 13-9t10-14-9-15-29-28-45-30-64-25-80-11q-75 0-121 48T34 159z"/><path id="q" stroke-width="1" d="M109 429q-27 0-43 18t-16 44q0 71 53 123t132 52q91 0 152-56t62-145q0-43-20-82t-48-68-80-74q-36-31-100-92l-59-56 76-1q157 0 167 5 7 2 24 89v3h40v-3q-1-3-13-91T421 3V0H50v31q0 7 6 15t30 35q29 32 50 56 9 10 34 37t34 37 29 33 28 34 23 30 21 32 15 29 13 32 7 30 3 33q0 63-34 109t-97 46q-33 0-58-17t-35-33-10-19q0-1 5-1 18 0 37-14t19-46q0-25-16-42t-45-18z"/><path id="a" stroke-width="1" d="M712 899l6-6v-28q0-11-14-19-77-53-127-136t-67-185q0-1-1-4-4-28-5-172v-15-94q0-242-1-244-1-4-9-5t-50-1q-52 0-54 1-3 1-4 4-2 10-2 235v82q0 50-1 70 0 99 9 153t42 121q76 150 230 236l13 7h35z"/><path id="d" stroke-width="1" d="M718-893l-6-6h-35l-11 6q-124 68-198 179t-83 238q-1 10-1 194 0 285 1 287l4 4q3 1 55 1 42 0 50-1t9-5q1-2 1-243v-127q0-104 4-147t22-96q16-48 39-89t48-69 44-45 38-31 18-13 1-20v-17z"/><path id="c" stroke-width="1" d="M389 1159q2 1 66 1 41 0 43-1 3-1 4-4 2-10 2-231 0-233-1-242-9-133-78-243T243 259l-14-9 14-9q106-66 178-175t82-248q1-9 1-242v-205q0-29-5-30h-1q-2-1-54-1t-54 1q-3 1-4 4-2 10-2 230v143q0 106-7 166T342 10q-17 44-41 82t-46 63-41 41-31 26-12 10q-1 1-1 18t1 18q0 1 20 16t49 47 60 76 54 117 29 155q1 12 1 246 0 227 1 230l4 4z"/><path id="b" stroke-width="1" d="M384 150v116q0 38 5 43 2 1 66 1 41 0 43-1 4-1 5-11 1-15 1-148V12q0-20-5-21h-1q-2-1-54-1t-54 1q-4 1-5 11-1 15-1 148z"/></defs><g fill="currentColor" stroke="currentColor" stroke-width="0"><g transform="matrix(1 0 0 -1 0 -3085)"><use y="-900" xlink:href="#a"/><use transform="matrix(1 0 0 3.45866 0 -1936.644)" xlink:href="#b"/><use y="-3086" xlink:href="#c"/><use transform="matrix(1 0 0 3.45866 0 -4772.333)" xlink:href="#b"/><use y="-4772" xlink:href="#d"/></g><g transform="matrix(1 0 0 -1 1042 -2285)"><use xlink:href="#e"/><use x="850" xlink:href="#f"/><use x="1906" xlink:href="#g"/><use x="2450" xlink:href="#h"/><g transform="translate(2839)"><use xlink:href="#e"/><use x="809" y="513" transform="scale(.707)" xlink:href="#i"/></g><use x="3929" xlink:href="#j"/><use x="4929" xlink:href="#k"/><g transform="translate(5415)"><use xlink:href="#l"/><use x="511" y="513" transform="scale(.707)" xlink:href="#i"/></g><use x="6071" xlink:href="#m"/></g><g transform="matrix(1 0 0 -1 2959 -834)"><use xlink:href="#n"/><use x="775" xlink:href="#f"/><g transform="translate(1831)"><use xlink:href="#n"/><use x="706" y="513" transform="scale(.707)" xlink:href="#i"/></g></g><g transform="matrix(1 0 0 -1 2989 572)"><use xlink:href="#o"/><use x="746" xlink:href="#f"/><g transform="translate(1802)"><use xlink:href="#o"/><use x="663" y="513" transform="scale(.707)" xlink:href="#i"/></g></g><g transform="matrix(1 0 0 -1 1165 2128)"><use xlink:href="#l"/><use x="639" xlink:href="#f"/><use x="1695" xlink:href="#g"/><use x="2239" xlink:href="#h"/><g transform="translate(2628)"><use xlink:href="#l"/><use x="511" y="513" transform="scale(.707)" xlink:href="#i"/></g><use x="3507" xlink:href="#j"/><path stroke="none" d="M4627 220h1076v60H4627z"/><g transform="translate(4687 419)"><use transform="scale(.707)" xlink:href="#k"/><g transform="translate(343)"><use transform="scale(.707)" xlink:href="#e"/><use x="809" y="513" transform="scale(.5)" xlink:href="#i"/></g></g><g transform="translate(4851 -449)"><use transform="scale(.707)" xlink:href="#p"/><use x="613" y="408" transform="scale(.5)" xlink:href="#q"/></g><use x="5824" xlink:href="#m"/></g></g></svg>